<svg width="52" height="53" viewBox="0 0 52 53" fill="none" xmlns="http://www.w3.org/2000/svg">
<g id="mdi:plus-box">
<path id="Vector" d="M36.8333 28.4516H28.1667V37.1182H23.8333V28.4516H15.1667V24.1182H23.8333V15.4516H28.1667V24.1182H36.8333M41.1667 6.78491H10.8333C8.42833 6.78491 6.5 8.71325 6.5 11.1182V41.4516C6.5 42.6009 6.95655 43.7031 7.7692 44.5157C8.58186 45.3284 9.68406 45.7849 10.8333 45.7849H41.1667C42.3159 45.7849 43.4181 45.3284 44.2308 44.5157C45.0435 43.7031 45.5 42.6009 45.5 41.4516V11.1182C45.5 9.96897 45.0435 8.86677 44.2308 8.05412C43.4181 7.24146 42.3159 6.78491 41.1667 6.78491Z" fill="#FF3333"/>
</g>
</svg>
